<mxfile host="app.diagrams.net" agent="Mozilla/5.0 (Windows NT 10.0; Win64; x64) AppleWebKit/537.36 (KHTML, like Gecko) Chrome/133.0.0.0 Safari/537.36" version="26.0.16">
  <diagram name="Seite-1" id="BsTbQbyeUdDjgpqLvMzg">
    <mxGraphModel dx="1122" dy="1352" grid="0" gridSize="10" guides="1" tooltips="1" connect="1" arrows="1" fold="1" page="0" pageScale="1" pageWidth="827" pageHeight="1169" math="0" shadow="0">
      <root>
        <mxCell id="0" />
        <mxCell id="1" parent="0" />
        <mxCell id="T4wDhP7YV10SAbBv8NX--1" value="" style="rounded=0;whiteSpace=wrap;html=1;strokeColor=light-dark(#FFFFFF,#FFFFFF);" parent="1" vertex="1">
          <mxGeometry x="11" y="148" width="960" height="561" as="geometry" />
        </mxCell>
        <mxCell id="T4wDhP7YV10SAbBv8NX--2" value="" style="rounded=0;whiteSpace=wrap;html=1;strokeColor=light-dark(#FFFFFF,#FFFFFF);" parent="1" vertex="1">
          <mxGeometry x="102" y="955" width="695" height="290" as="geometry" />
        </mxCell>
        <mxCell id="T4wDhP7YV10SAbBv8NX--3" value="Startup" style="rounded=0;whiteSpace=wrap;html=1;" parent="1" vertex="1">
          <mxGeometry x="400" y="300" width="120" height="60" as="geometry" />
        </mxCell>
        <mxCell id="T4wDhP7YV10SAbBv8NX--4" value="Investor" style="rounded=0;whiteSpace=wrap;html=1;" parent="1" vertex="1">
          <mxGeometry x="759" y="544" width="120" height="60" as="geometry" />
        </mxCell>
        <mxCell id="T4wDhP7YV10SAbBv8NX--5" value="Entrepreneur" style="rounded=0;whiteSpace=wrap;html=1;" parent="1" vertex="1">
          <mxGeometry x="100" y="300" width="120" height="60" as="geometry" />
        </mxCell>
        <mxCell id="T4wDhP7YV10SAbBv8NX--6" value="name" style="ellipse;whiteSpace=wrap;html=1;" parent="1" vertex="1">
          <mxGeometry x="30" y="210" width="110" height="50" as="geometry" />
        </mxCell>
        <mxCell id="T4wDhP7YV10SAbBv8NX--7" value="email" style="ellipse;whiteSpace=wrap;html=1;" parent="1" vertex="1">
          <mxGeometry x="180" y="210" width="110" height="50" as="geometry" />
        </mxCell>
        <mxCell id="T4wDhP7YV10SAbBv8NX--8" value="" style="endArrow=none;html=1;rounded=0;entryX=0.5;entryY=1;entryDx=0;entryDy=0;exitX=0.5;exitY=0;exitDx=0;exitDy=0;" parent="1" source="T4wDhP7YV10SAbBv8NX--5" target="T4wDhP7YV10SAbBv8NX--6" edge="1">
          <mxGeometry width="50" height="50" relative="1" as="geometry">
            <mxPoint x="180" y="470" as="sourcePoint" />
            <mxPoint x="230" y="420" as="targetPoint" />
          </mxGeometry>
        </mxCell>
        <mxCell id="T4wDhP7YV10SAbBv8NX--9" value="" style="endArrow=none;html=1;rounded=0;entryX=0.5;entryY=1;entryDx=0;entryDy=0;exitX=0.5;exitY=0;exitDx=0;exitDy=0;" parent="1" source="T4wDhP7YV10SAbBv8NX--5" target="T4wDhP7YV10SAbBv8NX--7" edge="1">
          <mxGeometry width="50" height="50" relative="1" as="geometry">
            <mxPoint x="170" y="310" as="sourcePoint" />
            <mxPoint x="95" y="270" as="targetPoint" />
          </mxGeometry>
        </mxCell>
        <mxCell id="T4wDhP7YV10SAbBv8NX--10" value="creates" style="rhombus;whiteSpace=wrap;html=1;" parent="1" vertex="1">
          <mxGeometry x="270" y="305" width="90" height="50" as="geometry" />
        </mxCell>
        <mxCell id="T4wDhP7YV10SAbBv8NX--12" value="" style="endArrow=none;html=1;rounded=0;exitX=1;exitY=0.5;exitDx=0;exitDy=0;entryX=0;entryY=0.5;entryDx=0;entryDy=0;" parent="1" source="T4wDhP7YV10SAbBv8NX--5" target="T4wDhP7YV10SAbBv8NX--10" edge="1">
          <mxGeometry width="50" height="50" relative="1" as="geometry">
            <mxPoint x="400" y="320" as="sourcePoint" />
            <mxPoint x="450" y="270" as="targetPoint" />
          </mxGeometry>
        </mxCell>
        <mxCell id="T4wDhP7YV10SAbBv8NX--13" value="N" style="edgeLabel;html=1;align=center;verticalAlign=middle;resizable=0;points=[];" parent="T4wDhP7YV10SAbBv8NX--12" vertex="1" connectable="0">
          <mxGeometry x="-0.1123" relative="1" as="geometry">
            <mxPoint as="offset" />
          </mxGeometry>
        </mxCell>
        <mxCell id="T4wDhP7YV10SAbBv8NX--14" value="N" style="endArrow=none;html=1;rounded=0;exitX=1;exitY=0.5;exitDx=0;exitDy=0;entryX=0;entryY=0.5;entryDx=0;entryDy=0;" parent="1" source="T4wDhP7YV10SAbBv8NX--10" target="T4wDhP7YV10SAbBv8NX--3" edge="1">
          <mxGeometry width="50" height="50" relative="1" as="geometry">
            <mxPoint x="270" y="420" as="sourcePoint" />
            <mxPoint x="320" y="370" as="targetPoint" />
          </mxGeometry>
        </mxCell>
        <mxCell id="T4wDhP7YV10SAbBv8NX--19" value="name" style="ellipse;whiteSpace=wrap;html=1;" parent="1" vertex="1">
          <mxGeometry x="689" y="454" width="110" height="50" as="geometry" />
        </mxCell>
        <mxCell id="T4wDhP7YV10SAbBv8NX--20" value="email" style="ellipse;whiteSpace=wrap;html=1;" parent="1" vertex="1">
          <mxGeometry x="839" y="454" width="110" height="50" as="geometry" />
        </mxCell>
        <mxCell id="T4wDhP7YV10SAbBv8NX--21" value="" style="endArrow=none;html=1;rounded=0;entryX=0.5;entryY=1;entryDx=0;entryDy=0;exitX=0.5;exitY=0;exitDx=0;exitDy=0;" parent="1" target="T4wDhP7YV10SAbBv8NX--19" edge="1">
          <mxGeometry width="50" height="50" relative="1" as="geometry">
            <mxPoint x="819" y="544" as="sourcePoint" />
            <mxPoint x="889" y="664" as="targetPoint" />
          </mxGeometry>
        </mxCell>
        <mxCell id="T4wDhP7YV10SAbBv8NX--22" value="" style="endArrow=none;html=1;rounded=0;entryX=0.5;entryY=1;entryDx=0;entryDy=0;exitX=0.5;exitY=0;exitDx=0;exitDy=0;" parent="1" target="T4wDhP7YV10SAbBv8NX--20" edge="1">
          <mxGeometry width="50" height="50" relative="1" as="geometry">
            <mxPoint x="819" y="544" as="sourcePoint" />
            <mxPoint x="754" y="514" as="targetPoint" />
          </mxGeometry>
        </mxCell>
        <mxCell id="T4wDhP7YV10SAbBv8NX--23" value="name" style="ellipse;whiteSpace=wrap;html=1;" parent="1" vertex="1">
          <mxGeometry x="304" y="230" width="110" height="50" as="geometry" />
        </mxCell>
        <mxCell id="T4wDhP7YV10SAbBv8NX--24" value="funding_status" style="ellipse;whiteSpace=wrap;html=1;" parent="1" vertex="1">
          <mxGeometry x="304" y="380" width="110" height="50" as="geometry" />
        </mxCell>
        <mxCell id="T4wDhP7YV10SAbBv8NX--25" value="description" style="ellipse;whiteSpace=wrap;html=1;" parent="1" vertex="1">
          <mxGeometry x="350" y="175" width="110" height="50" as="geometry" />
        </mxCell>
        <mxCell id="T4wDhP7YV10SAbBv8NX--26" value="industry" style="ellipse;whiteSpace=wrap;html=1;" parent="1" vertex="1">
          <mxGeometry x="510" y="230" width="110" height="50" as="geometry" />
        </mxCell>
        <mxCell id="T4wDhP7YV10SAbBv8NX--27" value="valuation" style="ellipse;whiteSpace=wrap;html=1;" parent="1" vertex="1">
          <mxGeometry x="510" y="390" width="110" height="50" as="geometry" />
        </mxCell>
        <mxCell id="T4wDhP7YV10SAbBv8NX--28" value="" style="endArrow=none;html=1;rounded=0;entryX=0.5;entryY=1;entryDx=0;entryDy=0;exitX=0.5;exitY=0;exitDx=0;exitDy=0;" parent="1" source="T4wDhP7YV10SAbBv8NX--3" target="T4wDhP7YV10SAbBv8NX--25" edge="1">
          <mxGeometry width="50" height="50" relative="1" as="geometry">
            <mxPoint x="380" y="320" as="sourcePoint" />
            <mxPoint x="430" y="270" as="targetPoint" />
          </mxGeometry>
        </mxCell>
        <mxCell id="T4wDhP7YV10SAbBv8NX--29" value="" style="endArrow=none;html=1;rounded=0;exitX=0.5;exitY=0;exitDx=0;exitDy=0;" parent="1" source="T4wDhP7YV10SAbBv8NX--3" target="T4wDhP7YV10SAbBv8NX--23" edge="1">
          <mxGeometry width="50" height="50" relative="1" as="geometry">
            <mxPoint x="410" y="300" as="sourcePoint" />
            <mxPoint x="460" y="250" as="targetPoint" />
          </mxGeometry>
        </mxCell>
        <mxCell id="T4wDhP7YV10SAbBv8NX--30" value="" style="endArrow=none;html=1;rounded=0;entryX=0;entryY=1;entryDx=0;entryDy=0;" parent="1" target="T4wDhP7YV10SAbBv8NX--26" edge="1">
          <mxGeometry width="50" height="50" relative="1" as="geometry">
            <mxPoint x="460" y="300" as="sourcePoint" />
            <mxPoint x="520" y="260" as="targetPoint" />
          </mxGeometry>
        </mxCell>
        <mxCell id="T4wDhP7YV10SAbBv8NX--31" value="" style="endArrow=none;html=1;rounded=0;entryX=0.5;entryY=1;entryDx=0;entryDy=0;exitX=1;exitY=0;exitDx=0;exitDy=0;" parent="1" source="T4wDhP7YV10SAbBv8NX--24" target="T4wDhP7YV10SAbBv8NX--3" edge="1">
          <mxGeometry width="50" height="50" relative="1" as="geometry">
            <mxPoint x="380" y="420" as="sourcePoint" />
            <mxPoint x="430" y="370" as="targetPoint" />
          </mxGeometry>
        </mxCell>
        <mxCell id="T4wDhP7YV10SAbBv8NX--32" value="" style="endArrow=none;html=1;rounded=0;entryX=0.5;entryY=1;entryDx=0;entryDy=0;exitX=0;exitY=0;exitDx=0;exitDy=0;" parent="1" source="T4wDhP7YV10SAbBv8NX--27" target="T4wDhP7YV10SAbBv8NX--3" edge="1">
          <mxGeometry width="50" height="50" relative="1" as="geometry">
            <mxPoint x="400" y="430" as="sourcePoint" />
            <mxPoint x="450" y="380" as="targetPoint" />
          </mxGeometry>
        </mxCell>
        <mxCell id="T4wDhP7YV10SAbBv8NX--33" value="" style="rounded=0;whiteSpace=wrap;html=1;" parent="1" vertex="1">
          <mxGeometry x="217" y="975" width="467.27" height="302" as="geometry" />
        </mxCell>
        <mxCell id="T4wDhP7YV10SAbBv8NX--34" value="&lt;b&gt;FundHive&lt;/b&gt;" style="text;html=1;align=center;verticalAlign=middle;whiteSpace=wrap;rounded=0;" parent="1" vertex="1">
          <mxGeometry x="420.63" y="975" width="60" height="30" as="geometry" />
        </mxCell>
        <mxCell id="T4wDhP7YV10SAbBv8NX--35" value="Entrepreneur" style="shape=umlActor;verticalLabelPosition=bottom;verticalAlign=top;html=1;outlineConnect=0;" parent="1" vertex="1">
          <mxGeometry x="137" y="1055" width="50" height="100" as="geometry" />
        </mxCell>
        <mxCell id="T4wDhP7YV10SAbBv8NX--36" value="Investor" style="shape=umlActor;verticalLabelPosition=bottom;verticalAlign=top;html=1;outlineConnect=0;" parent="1" vertex="1">
          <mxGeometry x="716" y="1066" width="50" height="100" as="geometry" />
        </mxCell>
        <mxCell id="T4wDhP7YV10SAbBv8NX--37" value="&lt;p data-pm-slice=&quot;1 1 []&quot;&gt;Startup erfassen&lt;/p&gt;" style="ellipse;whiteSpace=wrap;html=1;" parent="1" vertex="1">
          <mxGeometry x="278.5" y="1055" width="155" height="50" as="geometry" />
        </mxCell>
        <mxCell id="T4wDhP7YV10SAbBv8NX--38" value="Startup-Team beitreten" style="ellipse;whiteSpace=wrap;html=1;" parent="1" vertex="1">
          <mxGeometry x="285" y="1119" width="155" height="55" as="geometry" />
        </mxCell>
        <mxCell id="T4wDhP7YV10SAbBv8NX--39" value="&lt;p data-pm-slice=&quot;1 1 []&quot;&gt;Investitionsmöglichkeit suchen&lt;/p&gt;" style="ellipse;whiteSpace=wrap;html=1;" parent="1" vertex="1">
          <mxGeometry x="468.5" y="1036" width="185" height="50" as="geometry" />
        </mxCell>
        <mxCell id="T4wDhP7YV10SAbBv8NX--40" value="Investieren" style="ellipse;whiteSpace=wrap;html=1;" parent="1" vertex="1">
          <mxGeometry x="501" y="1106" width="125" height="40" as="geometry" />
        </mxCell>
        <mxCell id="T4wDhP7YV10SAbBv8NX--41" value="Startup bewerten" style="ellipse;whiteSpace=wrap;html=1;" parent="1" vertex="1">
          <mxGeometry x="501" y="1166" width="125" height="50" as="geometry" />
        </mxCell>
        <mxCell id="T4wDhP7YV10SAbBv8NX--42" value="investor_rating" style="ellipse;whiteSpace=wrap;html=1;" parent="1" vertex="1">
          <mxGeometry x="468.5" y="175" width="110" height="50" as="geometry" />
        </mxCell>
        <mxCell id="T4wDhP7YV10SAbBv8NX--43" value="" style="endArrow=none;html=1;rounded=0;entryX=0.5;entryY=0;entryDx=0;entryDy=0;" parent="1" source="T4wDhP7YV10SAbBv8NX--42" target="T4wDhP7YV10SAbBv8NX--3" edge="1">
          <mxGeometry width="50" height="50" relative="1" as="geometry">
            <mxPoint x="380" y="460" as="sourcePoint" />
            <mxPoint x="430" y="410" as="targetPoint" />
          </mxGeometry>
        </mxCell>
        <mxCell id="T4wDhP7YV10SAbBv8NX--44" value="" style="endArrow=none;html=1;rounded=0;entryX=1;entryY=0.5;entryDx=0;entryDy=0;exitX=0.5;exitY=0.5;exitDx=0;exitDy=0;exitPerimeter=0;" parent="1" source="T4wDhP7YV10SAbBv8NX--36" target="T4wDhP7YV10SAbBv8NX--39" edge="1">
          <mxGeometry width="50" height="50" relative="1" as="geometry">
            <mxPoint x="746" y="1146" as="sourcePoint" />
            <mxPoint x="796" y="1096" as="targetPoint" />
          </mxGeometry>
        </mxCell>
        <mxCell id="T4wDhP7YV10SAbBv8NX--45" value="" style="endArrow=none;html=1;rounded=0;entryX=1;entryY=0.5;entryDx=0;entryDy=0;exitX=0.5;exitY=0.5;exitDx=0;exitDy=0;exitPerimeter=0;" parent="1" source="T4wDhP7YV10SAbBv8NX--36" target="T4wDhP7YV10SAbBv8NX--40" edge="1">
          <mxGeometry width="50" height="50" relative="1" as="geometry">
            <mxPoint x="786" y="1146" as="sourcePoint" />
            <mxPoint x="836" y="1096" as="targetPoint" />
          </mxGeometry>
        </mxCell>
        <mxCell id="T4wDhP7YV10SAbBv8NX--46" value="" style="endArrow=none;html=1;rounded=0;entryX=0.5;entryY=0.5;entryDx=0;entryDy=0;entryPerimeter=0;exitX=1;exitY=0.5;exitDx=0;exitDy=0;" parent="1" source="T4wDhP7YV10SAbBv8NX--41" target="T4wDhP7YV10SAbBv8NX--36" edge="1">
          <mxGeometry width="50" height="50" relative="1" as="geometry">
            <mxPoint x="726" y="1216" as="sourcePoint" />
            <mxPoint x="776" y="1166" as="targetPoint" />
          </mxGeometry>
        </mxCell>
        <mxCell id="T4wDhP7YV10SAbBv8NX--47" value="" style="endArrow=none;html=1;rounded=0;entryX=0;entryY=0.5;entryDx=0;entryDy=0;exitX=0.5;exitY=0.5;exitDx=0;exitDy=0;exitPerimeter=0;" parent="1" source="T4wDhP7YV10SAbBv8NX--35" target="T4wDhP7YV10SAbBv8NX--37" edge="1">
          <mxGeometry width="50" height="50" relative="1" as="geometry">
            <mxPoint x="147" y="1115" as="sourcePoint" />
            <mxPoint x="197" y="1065" as="targetPoint" />
          </mxGeometry>
        </mxCell>
        <mxCell id="T4wDhP7YV10SAbBv8NX--48" value="" style="endArrow=none;html=1;rounded=0;entryX=0;entryY=0.5;entryDx=0;entryDy=0;exitX=0.5;exitY=0.5;exitDx=0;exitDy=0;exitPerimeter=0;" parent="1" source="T4wDhP7YV10SAbBv8NX--35" target="T4wDhP7YV10SAbBv8NX--38" edge="1">
          <mxGeometry width="50" height="50" relative="1" as="geometry">
            <mxPoint x="197" y="1145" as="sourcePoint" />
            <mxPoint x="247" y="1095" as="targetPoint" />
          </mxGeometry>
        </mxCell>
        <mxCell id="T4wDhP7YV10SAbBv8NX--49" value="Neue Investitionsrunde starten" style="ellipse;whiteSpace=wrap;html=1;" parent="1" vertex="1">
          <mxGeometry x="288" y="1188" width="155" height="52" as="geometry" />
        </mxCell>
        <mxCell id="T4wDhP7YV10SAbBv8NX--50" value="" style="endArrow=none;html=1;rounded=0;entryX=0.5;entryY=0.5;entryDx=0;entryDy=0;entryPerimeter=0;exitX=0;exitY=0.5;exitDx=0;exitDy=0;" parent="1" source="T4wDhP7YV10SAbBv8NX--49" target="T4wDhP7YV10SAbBv8NX--35" edge="1">
          <mxGeometry width="50" height="50" relative="1" as="geometry">
            <mxPoint x="103" y="1233" as="sourcePoint" />
            <mxPoint x="153" y="1183" as="targetPoint" />
          </mxGeometry>
        </mxCell>
        <mxCell id="T4wDhP7YV10SAbBv8NX--52" value="Investment round" style="rounded=0;whiteSpace=wrap;html=1;" parent="1" vertex="1">
          <mxGeometry x="400" y="544" width="120" height="60" as="geometry" />
        </mxCell>
        <mxCell id="T4wDhP7YV10SAbBv8NX--53" value="" style="endArrow=none;html=1;rounded=0;entryX=0.5;entryY=1;entryDx=0;entryDy=0;exitX=0.5;exitY=0;exitDx=0;exitDy=0;" parent="1" source="T4wDhP7YV10SAbBv8NX--54" target="T4wDhP7YV10SAbBv8NX--3" edge="1">
          <mxGeometry width="50" height="50" relative="1" as="geometry">
            <mxPoint x="430.63" y="430" as="sourcePoint" />
            <mxPoint x="480.63" y="380" as="targetPoint" />
          </mxGeometry>
        </mxCell>
        <mxCell id="IfzkRBo9pdd01THmkZR5-3" value="1" style="edgeLabel;html=1;align=center;verticalAlign=middle;resizable=0;points=[];fontSize=12;" vertex="1" connectable="0" parent="T4wDhP7YV10SAbBv8NX--53">
          <mxGeometry x="0.058" relative="1" as="geometry">
            <mxPoint as="offset" />
          </mxGeometry>
        </mxCell>
        <mxCell id="T4wDhP7YV10SAbBv8NX--54" value="launches" style="rhombus;whiteSpace=wrap;html=1;" parent="1" vertex="1">
          <mxGeometry x="415" y="432" width="90" height="50" as="geometry" />
        </mxCell>
        <mxCell id="T4wDhP7YV10SAbBv8NX--55" value="" style="endArrow=none;html=1;rounded=0;entryX=0.5;entryY=1;entryDx=0;entryDy=0;exitX=0.5;exitY=0;exitDx=0;exitDy=0;" parent="1" source="T4wDhP7YV10SAbBv8NX--52" target="T4wDhP7YV10SAbBv8NX--54" edge="1">
          <mxGeometry width="50" height="50" relative="1" as="geometry">
            <mxPoint x="413" y="545" as="sourcePoint" />
            <mxPoint x="463" y="495" as="targetPoint" />
          </mxGeometry>
        </mxCell>
        <mxCell id="IfzkRBo9pdd01THmkZR5-4" value="N" style="edgeLabel;html=1;align=center;verticalAlign=middle;resizable=0;points=[];fontSize=12;" vertex="1" connectable="0" parent="T4wDhP7YV10SAbBv8NX--55">
          <mxGeometry x="0.0547" relative="1" as="geometry">
            <mxPoint as="offset" />
          </mxGeometry>
        </mxCell>
        <mxCell id="T4wDhP7YV10SAbBv8NX--57" value="funds" style="rhombus;whiteSpace=wrap;html=1;" parent="1" vertex="1">
          <mxGeometry x="594.27" y="549" width="90" height="50" as="geometry" />
        </mxCell>
        <mxCell id="T4wDhP7YV10SAbBv8NX--59" value="" style="endArrow=none;html=1;rounded=0;entryX=1;entryY=0.5;entryDx=0;entryDy=0;exitX=0;exitY=0.5;exitDx=0;exitDy=0;" parent="1" source="T4wDhP7YV10SAbBv8NX--57" target="T4wDhP7YV10SAbBv8NX--52" edge="1">
          <mxGeometry width="50" height="50" relative="1" as="geometry">
            <mxPoint x="642" y="424" as="sourcePoint" />
            <mxPoint x="692" y="374" as="targetPoint" />
          </mxGeometry>
        </mxCell>
        <mxCell id="IfzkRBo9pdd01THmkZR5-1" value="M" style="edgeLabel;html=1;align=center;verticalAlign=middle;resizable=0;points=[];fontSize=12;" vertex="1" connectable="0" parent="T4wDhP7YV10SAbBv8NX--59">
          <mxGeometry x="-0.0932" relative="1" as="geometry">
            <mxPoint as="offset" />
          </mxGeometry>
        </mxCell>
        <mxCell id="T4wDhP7YV10SAbBv8NX--60" value="round_name" style="ellipse;whiteSpace=wrap;html=1;" parent="1" vertex="1">
          <mxGeometry x="285" y="604" width="110" height="50" as="geometry" />
        </mxCell>
        <mxCell id="T4wDhP7YV10SAbBv8NX--61" value="amount_raised" style="ellipse;whiteSpace=wrap;html=1;" parent="1" vertex="1">
          <mxGeometry x="405" y="631" width="110" height="50" as="geometry" />
        </mxCell>
        <mxCell id="T4wDhP7YV10SAbBv8NX--62" value="date" style="ellipse;whiteSpace=wrap;html=1;" parent="1" vertex="1">
          <mxGeometry x="525" y="606" width="110" height="50" as="geometry" />
        </mxCell>
        <mxCell id="T4wDhP7YV10SAbBv8NX--63" value="" style="endArrow=none;html=1;rounded=0;entryX=0.5;entryY=1;entryDx=0;entryDy=0;exitX=1;exitY=0.5;exitDx=0;exitDy=0;" parent="1" source="T4wDhP7YV10SAbBv8NX--60" target="T4wDhP7YV10SAbBv8NX--52" edge="1">
          <mxGeometry width="50" height="50" relative="1" as="geometry">
            <mxPoint x="560" y="559" as="sourcePoint" />
            <mxPoint x="610" y="509" as="targetPoint" />
          </mxGeometry>
        </mxCell>
        <mxCell id="T4wDhP7YV10SAbBv8NX--64" value="" style="endArrow=none;html=1;rounded=0;entryX=0.5;entryY=1;entryDx=0;entryDy=0;" parent="1" source="T4wDhP7YV10SAbBv8NX--61" target="T4wDhP7YV10SAbBv8NX--52" edge="1">
          <mxGeometry width="50" height="50" relative="1" as="geometry">
            <mxPoint x="363" y="769" as="sourcePoint" />
            <mxPoint x="413" y="719" as="targetPoint" />
          </mxGeometry>
        </mxCell>
        <mxCell id="T4wDhP7YV10SAbBv8NX--65" value="" style="endArrow=none;html=1;rounded=0;entryX=0.5;entryY=1;entryDx=0;entryDy=0;exitX=0;exitY=0.5;exitDx=0;exitDy=0;" parent="1" source="T4wDhP7YV10SAbBv8NX--62" target="T4wDhP7YV10SAbBv8NX--52" edge="1">
          <mxGeometry width="50" height="50" relative="1" as="geometry">
            <mxPoint x="496" y="729" as="sourcePoint" />
            <mxPoint x="546" y="679" as="targetPoint" />
          </mxGeometry>
        </mxCell>
        <mxCell id="T4wDhP7YV10SAbBv8NX--67" value="" style="endArrow=none;html=1;rounded=0;entryX=0;entryY=0.5;entryDx=0;entryDy=0;exitX=1;exitY=0.5;exitDx=0;exitDy=0;" parent="1" source="T4wDhP7YV10SAbBv8NX--57" target="T4wDhP7YV10SAbBv8NX--4" edge="1">
          <mxGeometry width="50" height="50" relative="1" as="geometry">
            <mxPoint x="691.1299999999999" y="577.2499999999998" as="sourcePoint" />
            <mxPoint x="602" y="547" as="targetPoint" />
          </mxGeometry>
        </mxCell>
        <mxCell id="IfzkRBo9pdd01THmkZR5-2" value="N" style="edgeLabel;html=1;align=center;verticalAlign=middle;resizable=0;points=[];fontSize=12;" vertex="1" connectable="0" parent="T4wDhP7YV10SAbBv8NX--67">
          <mxGeometry x="-0.1374" y="1" relative="1" as="geometry">
            <mxPoint as="offset" />
          </mxGeometry>
        </mxCell>
      </root>
    </mxGraphModel>
  </diagram>
</mxfile>
